PathFileType	4	(X/Y/Z)	C:\Users\JDoe\SprintMotion.trc
DataRate	CameraRate	NumFrames	NumMarkers	Units	OrigDataRate	OrigDataStartFrame	OrigNumFrames
250.00	250.00	       6	59	mm	250.00	198	       788
Frame#	Time	C7			T8			T12			R.AA			R.AC			R.Scapula			R.HeadHum			R.Hum			R.Epi.Med			R.Epi.Lat			R.Ulna			R.Wrist.Uln			R.Wrist.Rad			R.Hand			L.AA			L.AC			L.Scapula			L.HeadHum			L.Hum			L.Epi.Med			L.Epi.Lat			L.Ulna			L.Wrist.Uln			L.Wrist.Rad			L.Hand			Tete.H			Tete.D			Tete.G			Sacral			R.EIAS			LEIAS			R.Crete			L.Crete			R.GT			R.Hip			R.Knee.Med			R.Knee.Lat			R.TTA			R.Fibula			R.Ankle.Med			R.Ankle.Lat			R.Calca			R.Foot.Med			R.Foot.Lat			L.GT			L.Hip			L.Knee.Med			L.Knee.Lat			L.TTA			L.Fibula			L.Ankle.Med			L.Ankle.Lat			L.Calca			L.Foot.Med			L.Foot.Lat			StartG			StartD			StartAvt			StartArr			
		X1	Y1	Z1	X2	Y2	Z2	X3	Y3	Z3	X4	Y4	Z4	X5	Y5	Z5	X6	Y6	Z6	X7	Y7	Z7	X8	Y8	Z8	X9	Y9	Z9	X10	Y10	Z10	X11	Y11	Z11	X12	Y12	Z12	X13	Y13	Z13	X14	Y14	Z14	X15	Y15	Z15	X16	Y16	Z16	X17	Y17	Z17	X18	Y18	Z18	X19	Y19	Z19	X20	Y20	Z20	X21	Y21	Z21	X22	Y22	Z22	X23	Y23	Z23	X24	Y24	Z24	X25	Y25	Z25	X26	Y26	Z26	X27	Y27	Z27	X28	Y28	Z28	X29	Y29	Z29	X30	Y30	Z30	X31	Y31	Z31	X32	Y32	Z32	X33	Y33	Z33	X34	Y34	Z34	X35	Y35	Z35	X36	Y36	Z36	X37	Y37	Z37	X38	Y38	Z38	X39	Y39	Z39	X40	Y40	Z40	X41	Y41	Z41	X42	Y42	Z42	X43	Y43	Z43	X44	Y44	Z44	X45	Y45	Z45	X46	Y46	Z46	X47	Y47	Z47	X48	Y48	Z48	X49	Y49	Z49	X50	Y50	Z50	X51	Y51	Z51	X52	Y52	Z52	X53	Y53	Z53	X54	Y54	Z54	X55	Y55	Z55	X56	Y56	Z56	X57	Y57	Z57	X58	Y58	Z58	X59	Y59	Z59	

198	0.788	213.73119	68.90838	691.22443	6.76422	69.16836	787.66797	-135.92329	70.24512	792.33673	181.24989	-34.40813	735.37360	164.13016	-21.55476	588.61926	199.13791	-61.02643	660.17889	170.09232	-146.74272	610.57391	78.72057	-181.74039	493.84311	-10.07741	-116.92155	410.74796	67.58796	-188.22520	403.49966	21.48176	-201.20491	259.81311	-50.09177	-202.81709	130.35924	-3.86888	-165.46394	119.30692	-33.02904	-218.14568	95.93836	172.65109	186.75211	739.94696	155.59482	168.88477	590.51178	190.47049	217.95209	648.89929	159.68854	299.96310	594.01544	43.91883	334.85480	516.42218	-5.46933	280.79868	410.15344	71.61918	346.09277	407.96292	-22.23756	358.17697	294.91888	-61.92047	356.52206	127.91678	-12.99041	318.95438	105.13616	-32.21200	370.45535	92.96648	437.39639	75.14513	560.04401	386.06296	65.58652	458.51108	388.48914	75.09549	666.17218	-331.61261	89.89620	769.81281	-213.45978	-0.90167	587.08655	-191.22990	153.14050	585.46246	-223.59122	-70.07041	701.13391	-192.58800	220.65668	697.70105	-355.29605	-93.93176	653.01141	-246.02858	-32.62939	460.61908	-388.39325	43.32732	226.99025	-370.70346	-68.99833	228.31668	-442.75961	-6.20800	157.07230	-473.89130	-84.01573	192.29984	-758.71960	25.17968	204.93213	-771.85602	-64.70143	215.29045	-814.74731	-18.39207	273.80121	-763.03674	-8.25087	57.78199	-773.88068	-66.86932	60.64265	-287.58698	269.52768	668.13300	-245.85812	276.05392	506.10895	-170.59886	126.11015	293.74088	-139.23633	235.89862	282.60538	-185.58374	174.52019	197.79254	-277.04752	253.99622	247.59015	-512.24316	143.93254	201.89507	-535.56049	234.21854	208.30875	-574.26813	191.30649	266.96371	-502.52753	139.08139	53.37404	-508.54089	213.76978	51.79205	-596.86285	266.49890	25.61579	-930.76093	-121.64780	33.36132	-518.83942	71.51547	45.41938	-1120.57642	76.71610	55.90079	
199	0.792	213.73897	68.96906	691.10925	7.11641	69.20258	788.05341	-135.55177	70.25675	793.18341	181.50238	-34.33258	735.26715	164.13597	-21.41409	588.68793	199.22180	-60.94697	660.06641	170.19800	-146.58408	610.50751	78.78540	-181.68050	493.79617	-10.13840	-116.95470	410.77237	67.63306	-188.10315	403.50244	21.49909	-201.22809	259.83328	-50.04824	-202.83171	130.39801	-3.86631	-165.44626	119.31651	-33.02205	-218.14572	95.92951	172.75267	186.82594	739.89124	155.54446	168.92938	590.53900	190.50543	218.01257	648.86768	159.70457	299.97989	593.97937	43.92837	334.96979	516.46918	-5.41648	280.80637	410.16544	71.57461	346.22607	407.98267	-22.23966	358.25272	294.93369	-61.92165	356.54260	127.90240	-12.99745	318.95981	105.15723	-32.22164	370.45422	92.96580	437.34726	75.17433	559.91699	385.84030	65.70081	458.29800	388.47012	75.12958	666.09357	-331.30630	89.92908	771.21637	-213.65146	-0.93010	588.24976	-191.39777	153.10710	586.51337	-223.48779	-70.03819	702.35016	-192.47829	220.66302	698.68488	-355.26208	-93.99076	654.53821	-246.16975	-32.56325	462.13080	-388.57443	43.37624	228.50641	-370.80289	-68.84727	229.76457	-442.64478	-6.09684	158.25339	-473.97205	-83.90272	193.38901	-758.95129	25.26497	205.04308	-771.92017	-64.66447	215.35646	-814.97125	-18.30054	273.78662	-763.03247	-8.24007	57.78762	-773.84247	-66.85740	60.68132	-287.58679	269.54254	669.31409	-246.11635	276.01071	507.30615	-171.08487	126.08083	294.76010	-139.79727	235.65955	283.59470	-185.93970	174.41133	198.62073	-277.59845	253.82957	248.21545	-512.65369	143.80908	201.90184	-535.96436	233.97186	208.28873	-574.83820	191.10553	266.87518	-502.69049	139.01024	53.39730	-508.61929	213.72597	51.84492	-596.86407	266.49875	25.61543	-930.75830	-121.64326	33.35842	-518.89319	71.50365	45.45235	-1120.57483	76.71481	55.89864	
200	0.796	213.74191	69.03002	690.99005	7.46446	69.23611	788.43536	-135.18375	70.27105	794.02997	181.75047	-34.25465	735.16602	164.13130	-21.26356	588.75958	199.29971	-60.86530	659.95947	170.30515	-146.42348	610.44293	78.84615	-181.61746	493.75119	-10.21287	-116.98764	410.80508	67.66589	-187.97168	403.51852	21.51569	-201.25787	259.86966	-50.00018	-202.84703	130.44162	-3.86326	-165.42667	119.32850	-33.01675	-218.14609	95.92123	172.85205	186.89828	739.83020	155.48416	168.97153	590.55743	190.53983	218.07616	648.82690	159.72086	300.00009	593.93805	43.94138	335.08762	516.50433	-5.35259	280.80408	410.17191	71.51984	346.35321	407.99030	-22.22321	358.32376	294.94223	-61.93008	356.55933	127.88483	-13.02805	318.97015	105.16390	-32.24697	370.46271	92.96477	437.29132	75.20795	559.79816	385.62808	65.82565	458.09421	388.44778	75.16347	666.02118	-331.00616	89.97013	772.62012	-213.84154	-0.96057	589.41333	-191.56955	153.07129	587.55927	-223.37979	-70.00517	703.56891	-192.37564	220.66382	699.66064	-355.23276	-94.04708	656.06952	-246.31123	-32.50954	463.64871	-388.75809	43.43256	230.02528	-370.90561	-68.69459	231.21626	-442.52637	-5.97573	159.44427	-474.05151	-83.78598	194.47165	-759.18298	25.34307	205.15150	-771.98041	-64.62795	215.40265	-815.19049	-18.20956	273.76111	-763.02936	-8.22811	57.79223	-773.80762	-66.84573	60.71798	-287.58557	269.56219	670.49280	-246.38043	275.96606	508.50171	-171.56781	126.05370	295.77875	-140.36244	235.40884	284.57883	-186.30037	174.30788	199.45364	-278.16187	253.66510	248.84505	-513.06415	143.67293	201.91129	-536.37256	233.72292	208.27364	-575.40894	190.88885	266.78842	-502.85815	138.93205	53.42329	-508.69241	213.67950	51.89822	-596.86548	266.49820	25.61506	-930.75635	-121.63861	33.35516	-518.95599	71.47939	45.46717	-1120.57300	76.71342	55.89622	
201	0.800	213.74091	69.09219	690.86603	7.80958	69.26947	788.81207	-134.81717	70.29016	794.87408	181.99358	-34.17191	735.06860	164.11288	-21.10027	588.83136	199.37238	-60.77977	659.85657	170.41229	-146.26122	610.37659	78.90281	-181.55090	493.70901	-10.30058	-117.02132	410.84583	67.68693	-187.83430	403.54623	21.53277	-201.29565	259.92279	-49.94889	-202.86246	130.48889	-3.85911	-165.40616	119.34216	-33.01275	-218.14674	95.91360	172.95166	186.97031	739.76282	155.41118	169.01289	590.56543	190.57275	218.14351	648.77606	159.73329	300.02618	593.89050	43.95653	335.20615	516.52734	-5.28064	280.79480	410.17639	71.45396	346.47281	407.98596	-22.19376	358.39050	294.94232	-61.94652	356.57239	127.86517	-13.08337	318.98697	105.15680	-32.28914	370.48053	92.96291	437.22784	75.24751	559.68488	385.42773	65.95878	457.90228	388.42227	75.19834	665.95300	-330.71387	90.01848	774.02356	-214.02901	-0.99308	590.57709	-191.74260	153.03352	588.60077	-223.26801	-69.97123	704.78937	-192.27826	220.65776	700.62952	-355.20856	-94.10071	657.60486	-246.45120	-32.46716	465.17114	-388.94388	43.49465	231.54497	-371.01358	-68.54109	232.67271	-442.40778	-5.84487	160.64151	-474.13025	-83.66451	195.54738	-759.41150	25.41584	205.25618	-772.03955	-64.58898	215.43164	-815.40424	-18.11797	273.72433	-763.02777	-8.21496	57.79527	-773.77649	-66.83391	60.75285	-287.58362	269.58643	671.67163	-246.65117	275.92020	509.69504	-172.04929	126.02675	296.79941	-140.93205	235.14958	285.56024	-186.66879	174.20615	200.29008	-278.73639	253.50201	249.47887	-513.47662	143.52272	201.92639	-536.78632	233.47789	208.26691	-575.98065	190.65616	266.70126	-503.02985	138.84782	53.45053	-508.76132	213.62700	51.95007	-596.86688	266.49738	25.61470	-930.75543	-121.63403	33.35147	-519.02692	71.44576	45.46440	-1120.57056	76.71212	55.89354	
202	0.804	213.73660	69.15632	690.73627	8.15244	69.30269	789.18268	-134.45023	70.31487	795.71405	182.23123	-34.08248	734.97351	164.07990	-20.92237	588.90143	199.44083	-60.68895	659.75586	170.51724	-146.09805	610.30499	78.95483	-181.48112	493.67062	-10.40142	-117.05699	410.89410	67.69595	-187.69485	403.58313	21.55156	-201.34279	259.99243	-49.89651	-202.87724	130.53784	-3.85337	-165.38651	119.35728	-33.00984	-218.14771	95.90679	173.05342	187.04306	739.68866	155.32262	169.05547	590.56146	190.60312	218.21512	648.71527	159.73779	300.06009	593.83655	43.97193	335.32297	516.53900	-5.20356	280.78131	410.18185	71.37607	346.58438	407.97128	-22.15875	358.45474	294.93317	-61.97137	356.58246	127.84467	-13.16322	319.01086	105.13785	-32.34840	370.50653	92.95965	437.15588	75.29453	559.57477	385.23938	66.09890	457.72327	388.39389	75.23544	665.88721	-330.43015	90.07244	775.42639	-214.21219	-1.02786	591.74109	-191.91371	152.99384	589.63867	-223.15268	-69.93651	706.01099	-192.18343	220.64429	701.59247	-355.18973	-94.15173	659.14386	-246.58755	-32.43325	466.69568	-389.13171	43.56063	233.06331	-371.12839	-68.38770	234.13431	-442.29187	-5.70621	161.84203	-474.20859	-83.53839	196.61742	-759.63336	25.48528	205.35477	-772.10016	-64.54465	215.44640	-815.61194	-18.02460	273.67688	-763.02789	-8.19981	57.79654	-773.74884	-66.82165	60.78624	-287.58014	269.61462	672.85303	-246.92850	275.87283	510.88550	-172.53125	125.99701	297.82425	-141.50734	234.88614	286.54239	-187.04776	174.10320	201.12842	-279.31995	253.33994	250.11659	-513.89410	143.35687	201.94882	-537.20679	233.24277	208.27110	-576.55457	190.40764	266.61194	-503.20520	138.75893	53.47808	-508.82703	213.56500	51.99919	-596.86816	266.49658	25.61440	-930.75574	-121.62968	33.34730	-519.10504	71.40761	45.44643	-1120.56787	76.71107	55.89063	
203	0.808	213.72954	69.22271	690.60077	8.49365	69.33552	789.54755	-134.08171	70.34448	796.54932	182.46315	-33.98544	734.87921	164.03383	-20.72954	588.96863	199.50592	-60.59175	659.65558	170.61755	-145.93500	610.22467	79.00105	-181.40918	493.63684	-10.51526	-117.09612	410.94928	67.69186	-187.55734	403.62650	21.57322	-201.40039	260.07736	-49.84595	-202.89070	130.58575	-3.84598	-165.36952	119.37377	-33.00797	-218.14906	95.90105	173.15878	187.11737	739.60785	155.21568	169.10135	590.54419	190.62958	218.29138	648.64520	159.73070	300.10309	593.77631	43.98506	335.43564	516.54059	-5.12429	280.76596	410.19055	71.28529	346.68817	407.94913	-22.12735	358.51944	294.91519	-62.00478	356.59073	127.82460	-13.26572	319.04187	105.11034	-32.42377	370.53796	92.95451	437.07437	75.35061	559.46533	385.06262	66.24538	457.55698	388.36328	75.27619	665.82239	-330.15521	90.12966	776.82855	-214.39008	-1.06609	592.90552	-192.08029	152.95113	590.67328	-223.03418	-69.90199	707.23346	-192.08855	220.62337	702.54993	-355.17599	-94.20039	660.68585	-246.71848	-32.40460	468.21970	-389.32172	43.62865	234.57915	-371.25180	-68.23566	235.60123	-442.18100	-5.56334	163.04292	-474.28629	-83.40890	197.68382	-759.84503	25.55344	205.44440	-772.16455	-64.49223	215.45010	-815.81335	-17.92842	273.62033	-763.02954	-8.18120	57.79636	-773.72443	-66.80880	60.81852	-287.57346	269.64563	674.03894	-247.21150	275.82376	512.07263	-173.01639	125.96149	298.85361	-142.08995	234.62373	287.52832	-187.43956	173.99774	201.96577	-279.90991	253.17908	250.75735	-514.31989	143.17393	201.97864	-537.63513	233.02203	208.28786	-577.13257	190.14389	266.51938	-503.38403	138.66675	53.50503	-508.89069	213.49097	52.04566	-596.86896	266.49612	25.61419	-930.75714	-121.62572	33.34273	-519.18939	71.37068	45.41677	-1120.56482	76.71035	55.88762	
